<svg width="52" height="52" viewBox="0 0 52 52" fill="none" xmlns="http://www.w3.org/2000/svg">
<g filter="url(#filter0_d_113_6035)">
<rect x="10" y="10" width="32" height="32" rx="6" fill="white"/>
</g>
<path d="M31.0004 24C31.6096 24 32.2043 23.8146 32.7055 23.4684C33.2067 23.1222 33.5907 22.6316 33.8063 22.0619C34.0219 21.4922 34.059 20.8703 33.9126 20.279C33.7662 19.6877 33.4433 19.155 32.9868 18.7517C32.5302 18.3484 31.9618 18.0936 31.3569 18.0212C30.7521 17.9489 30.1395 18.0624 29.6008 18.3466C29.062 18.6308 28.6225 19.0723 28.3407 19.6124C28.059 20.1524 27.9483 20.7655 28.0234 21.37L23.0834 23.84C22.6596 23.4314 22.125 23.1564 21.5461 23.0494C20.9672 22.9425 20.3696 23.0082 19.8278 23.2384C19.286 23.4686 18.8239 23.8532 18.499 24.3441C18.1742 24.8351 18.001 25.4108 18.001 25.9995C18.001 26.5882 18.1742 27.1639 18.499 27.6549C18.8239 28.1458 19.286 28.5304 19.8278 28.7606C20.3696 28.9908 20.9672 29.0565 21.5461 28.9496C22.125 28.8426 22.6596 28.5676 23.0834 28.159L28.0234 30.629C27.9359 31.3312 28.0995 32.0418 28.4852 32.6351C28.8709 33.2284 29.454 33.6663 30.1313 33.8713C30.8086 34.0763 31.5366 34.0353 32.1866 33.7555C32.8366 33.4757 33.3668 32.9751 33.6834 32.3422C34 31.7093 34.0827 30.9849 33.9169 30.2969C33.751 29.6089 33.3473 29.0017 32.7771 28.5826C32.2069 28.1635 31.5069 27.9595 30.8007 28.0066C30.0946 28.0537 29.4279 28.3489 28.9184 28.84L23.9784 26.37C24.0087 26.1243 24.0087 25.8757 23.9784 25.63L28.9184 23.16C29.4564 23.68 30.1904 24 31.0004 24Z" fill="#242424"/>
<defs>
<filter id="filter0_d_113_6035" x="0" y="0" width="52" height="52" filterUnits="userSpaceOnUse" color-interpolation-filters="sRGB">
<feFlood flood-opacity="0" result="BackgroundImageFix"/>
<feColorMatrix in="SourceAlpha" type="matrix" values="0 0 0 0 0 0 0 0 0 0 0 0 0 0 0 0 0 0 127 0" result="hardAlpha"/>
<feOffset/>
<feGaussianBlur stdDeviation="5"/>
<feComposite in2="hardAlpha" operator="out"/>
<feColorMatrix type="matrix" values="0 0 0 0 0 0 0 0 0 0 0 0 0 0 0 0 0 0 0.15 0"/>
<feBlend mode="normal" in2="BackgroundImageFix" result="effect1_dropShadow_113_6035"/>
<feBlend mode="normal" in="SourceGraphic" in2="effect1_dropShadow_113_6035" result="shape"/>
</filter>
</defs>
</svg>
